<svg id="paw-outline" xmlns="http://www.w3.org/2000/svg" width="30" height="30" viewBox="0 0 30 30"><style>.st0{fill:#1c130c}</style><path class="st0" d="M5 10.4c1.1 0 2 .9 2 2s-.9 2-2 2-2-.9-2-2 .9-2 2-2m0-1c-1.6 0-3 1.3-3 3s1.3 3 3 3 3-1.3 3-3-1.4-3-3-3zM25 10.4c1.1 0 2 .9 2 2s-.9 2-2 2-2-.9-2-2 1-2 2-2m0-1c-1.6 0-3 1.3-3 3s1.3 3 3 3 3-1.3 3-3-1.3-3-3-3zM10.9 4.2c1.1 0 2 .9 2 2s-.9 2-2 2-2-.9-2-2 .9-2 2-2m0-1c-1.6 0-3 1.3-3 3s1.3 3 3 3 3-1.3 3-3-1.4-3-3-3zM19.1 4.2c1.1 0 2 .9 2 2s-.9 2-2 2-2-.9-2-2 1-2 2-2m0-1c-1.6 0-3 1.3-3 3s1.3 3 3 3 3-1.3 3-3-1.3-3-3-3zM15 11.5c2.4 0 4.3 1.9 4.3 4.3v.5c-.1.5.2.9.7 1.1 1.8.6 3 2.2 3 4.1 0 2.4-1.9 4.3-4.3 4.3h-7.4c-2.4 0-4.3-1.9-4.3-4.3 0-1.9 1.2-3.6 3-4.1.5-.1.8-.6.7-1.1v-.5c0-2.4 1.9-4.3 4.3-4.3m0-1c-2.9 0-5.3 2.4-5.3 5.3v.6c-2.2.7-3.7 2.7-3.7 5.1 0 2.9 2.4 5.3 5.3 5.3h7.4c2.9 0 5.3-2.4 5.3-5.3 0-2.4-1.6-4.4-3.8-5.1v-.6c.1-2.9-2.3-5.3-5.2-5.3z"/></svg>
