<svg id="take-a-paws" xmlns="http://www.w3.org/2000/svg" width="172" height="24" viewBox="0 0 172 24"><style>.st0{fill:#1c130c}</style><path class="st0" d="M7.1 20.3c-.2-.2-.4-.5-.4-.9V5.6H1.9c-.8 0-1.2-.3-1.2-1 0-.3.1-.6.3-.8.2-.2.5-.3.9-.3h12.2c.4 0 .7.1.9.3.2.2.3.4.3.8 0 .7-.4 1-1.2 1H9.3v13.9c0 .4-.1.7-.3.9-.2.2-.5.4-.9.4-.4-.1-.7-.2-1-.5zM30.5 19.6c0 .3-.1.6-.4.8-.3.2-.5.3-.8.3-.2 0-.4-.1-.6-.2-.2-.1-.3-.3-.4-.5l-1.6-3.6h-8.9L16.2 20c-.1.2-.2.4-.4.5-.2.1-.4.2-.6.2-.3 0-.6-.1-.9-.3-.3-.2-.4-.5-.4-.8 0-.1 0-.3.1-.5l6.8-14.9c.1-.3.3-.5.5-.6.3-.1.5-.2.8-.2.3 0 .5.1.8.2.3.1.4.3.5.6l6.8 14.9c.3.2.3.4.3.5zm-11.8-5.2h7.1l-3.6-8-3.5 8zM46.2 19.5c0 .3-.1.6-.4.8-.2.2-.5.3-.8.3-.3 0-.6-.1-.8-.4l-8.6-7.8v6.9c0 .4-.1.7-.3.9-.2.2-.5.3-.9.3s-.7-.1-.9-.3c-.2-.2-.3-.5-.3-.9V4.6c0-.4.1-.7.3-.9.2-.2.5-.4.9-.4s.7.1.9.3c.2.2.3.5.3.9v6.6l8.3-7.5c.2-.2.5-.3.8-.3.3 0 .6.1.8.3.2.2.3.5.3.8 0 .3-.1.6-.4.8l-7.2 6.4 7.7 6.9c.2.4.3.7.3 1zM49 20.2c-.2-.2-.3-.5-.3-.9V4.7c0-.4.1-.7.3-.9.2-.2.5-.3.9-.3h8.9c.4 0 .7.1.9.3.2.1.3.4.3.7 0 .3-.1.6-.3.7-.2.2-.5.3-.9.3h-7.7v5.4h7.2c.4 0 .7.1.9.3.2.2.3.4.3.8 0 .3-.1.6-.3.8-.2.2-.5.3-.9.3h-7.2v5.6h7.7c.8 0 1.2.3 1.2 1 0 .3-.1.6-.3.8-.2.2-.5.3-.9.3h-8.9c-.4-.2-.7-.4-.9-.6z"/><g><path class="st0" d="M102.8 20.3c-.2-.2-.3-.5-.3-.9V4.7c0-.4.1-.7.3-.9s.5-.3.9-.3h5.8c1.8 0 3.2.4 4.2 1.3s1.5 2.1 1.5 3.8c0 1.6-.5 2.9-1.5 3.8-1 .9-2.4 1.4-4.2 1.4h-4.6v5.7c0 .4-.1.7-.3.9-.2.2-.5.3-.9.3s-.7-.2-.9-.4zm6.4-8.6c2.4 0 3.6-1 3.6-3.1s-1.2-3.1-3.6-3.1h-4.3v6.2h4.3zM131.6 19.6c0 .3-.1.6-.4.8-.3.2-.5.3-.8.3-.2 0-.4-.1-.6-.2-.2-.1-.3-.3-.4-.5l-1.6-3.6h-8.9l-1.6 3.6c-.1.2-.2.4-.4.5-.2.1-.4.2-.6.2-.3 0-.6-.1-.9-.3-.3-.2-.4-.5-.4-.8 0-.1 0-.3.1-.5l6.9-15c.1-.3.3-.5.5-.6.3-.1.5-.2.8-.2.3 0 .5.1.8.2.3.1.4.3.5.6l6.8 14.9c.2.3.2.4.2.6zm-11.8-5.3h7.1l-3.6-8-3.5 8zM154.7 3.5c.2-.1.4-.2.7-.2.3 0 .6.1.8.3.2.2.4.5.4.8 0 .2 0 .3-.1.5l-5.4 15c-.1.3-.3.5-.5.6-.2.1-.5.2-.8.2-.3 0-.5-.1-.8-.2-.2-.1-.4-.4-.5-.6l-4.4-12.5-4.5 12.5c-.1.3-.3.5-.5.6-.2.1-.5.2-.8.2-.3 0-.6-.1-.8-.2-.2-.1-.4-.4-.5-.6l-5.4-15c-.1-.1-.1-.3-.1-.5 0-.3.1-.6.4-.8.2-.2.5-.3.9-.3.2 0 .5.1.7.2.2.1.4.3.4.6l4.5 12.9L143 4.2c.1-.3.3-.5.5-.6.2-.1.5-.2.7-.2.3 0 .5.1.7.2.2.2.4.4.5.6l4.5 12.9 4.6-13c-.1-.3 0-.5.2-.6zM161.2 20.2c-1.1-.3-2-.8-2.7-1.4-.3-.3-.5-.6-.5-1 0-.3.1-.5.2-.7.2-.2.4-.3.6-.3.2 0 .5.1.8.3 1.4 1.1 3.1 1.6 4.9 1.6 1.3 0 2.3-.2 3-.7.7-.5 1-1.2 1-2.1 0-.7-.3-1.2-1-1.6-.6-.4-1.7-.7-3.1-1-1.4-.3-2.5-.6-3.3-1-.9-.4-1.6-.9-2-1.5-.5-.6-.7-1.4-.7-2.4s.3-1.9.8-2.6c.5-.8 1.3-1.4 2.3-1.8 1-.4 2.1-.6 3.3-.6 1.1 0 2.2.2 3.2.5s1.8.8 2.5 1.4c.3.3.5.6.5 1 0 .3-.1.5-.3.7-.2.2-.4.3-.6.3-.2 0-.5-.1-.8-.3-.7-.6-1.4-1-2.1-1.2-.7-.3-1.4-.4-2.4-.4-1.2 0-2.2.3-2.9.8-.7.5-1 1.2-1 2.1 0 .8.3 1.4.9 1.8.6.4 1.6.8 3 1.1 1.4.3 2.6.7 3.5 1 .9.3 1.6.8 2.1 1.4.5.6.8 1.4.8 2.3 0 1-.3 1.8-.8 2.6s-1.3 1.3-2.3 1.7c-1 .4-2.1.6-3.4.6-1.2-.1-2.4-.2-3.5-.6z"/></g><g><circle class="st0" cx="71.4" cy="9.4" r="2.8"/><circle class="st0" cx="90.5" cy="9.4" r="2.8"/><circle class="st0" cx="77" cy="3.6" r="2.8"/><circle class="st0" cx="84.9" cy="3.6" r="2.8"/><path class="st0" d="M86 13.3v-.5c0-2.8-2.3-5.1-5.1-5.1s-5.1 2.3-5.1 5.1v.5c-2.1.6-3.6 2.6-3.6 4.8 0 2.8 2.3 5.1 5.1 5.1h7.1c2.8 0 5.1-2.3 5.1-5.1.1-2.2-1.4-4.1-3.5-4.8z"/></g></svg>
